<svg xmlns="http://www.w3.org/2000/svg" viewBox="0 0 32 32" width="16" role="presentation" alt="" data-testid="SnowflakeIcon" size="16" color="currentColor"><path d="M15 0s-.1 1.5-.1 3.7c0 0-1.3-.7-2.6-2.2l-1.6 1.2s1.3 1.9 1.9 2.8l2.1 2.4c-.2 2-.4 3.2-.6 4.3-1.5-.4-2.6-.8-4.2-1.5 0 0-.7-.9-1.2-2.7-.4-1.9-.5-2.8-.5-2.8l-2.1.6.4 1.6.2 1.6C4.6 7.9 2.9 7 2.9 7L1.8 9s1.7 1.1 3.8 2.5l-3.5 1.2.6 2.2s1.1-.2 2.5-.5c1.5-.3 3.6-.8 3.6-.8 1.4.9 2.8 1.8 4 2.5-1.2.7-3.1 1.9-4.5 2.8 0 0-.9-.2-2.7-.5-1.8-.2-3.8-.5-3.8-.5l.1 2.1 2.1.6 1.8.6C3.7 22.8 1 24.6 1 24.6l.8 1.4s2.8-1.4 4.9-2.5l-.6 3.6 1.9.3.7-2 1.4-3.6c1.4-1 2.9-2.1 4.4-3.2.1 2.9-.1 6.1-.1 6.1L12 27.4 10.6 29l1.6 1.6 2.6-2.3c.1 2.1.2 3.7.2 3.7h2.3s.1-1.6.2-3.8l1 .9 1.6 1.4 1.6-1.6-2.9-3.2-1.2-1.2c.1-2 .3-4 .5-5.7 1.3.7 2.6 1.7 4.2 2.5l1.3 3.4.8 2 1.8-.6-.4-2.1-.2-1c2.1 1.1 3.7 1.9 3.7 1.9l1.1-2s-1.7-1.1-3.8-2.5l1.5-.5 2-.7-.4-1.6-2.1.1-4.1.7c-1.4-1-2.4-1.8-3.3-2.5 1.3-1.1 2.8-2.5 4.6-3.8 0 0 1 .4 2.3.8 1.3.4 3 .7 3 .7s.2-1.1.4-1.8c-2-.7-3.4-1.3-3.4-1.3C29.3 9.1 31 8.1 31 8.1l-1.1-2s-1.6.8-3.8 2l.3-2 .2-1.7-1.8-.4s-.3 1.3-.7 2.6c-.4 1.4-1.2 2.7-1.2 2.7-1.6 1.2-3.3 2.4-4.6 3.1-.2-1.5-.3-2.8-.4-4.8.9-1.5 3.7-4.7 3.7-4.7l-1.3-1.1L17.4 4c-.1-2.4-.2-4-.2-4H15z" fill-rule="evenodd" clip-rule="evenodd" fill="currentColor"/></svg>