<svg xmlns="http://www.w3.org/2000/svg" viewBox="0 0 32 32" width="18" data-testid="MyNintendoTileIcon" color="currentColor"><path d="M26.667 0H5.333A5.333 5.333 0 0 0 0 5.333v21.334A5.333 5.333 0 0 0 5.333 32h21.334A5.333 5.333 0 0 0 32 26.667V5.333A5.333 5.333 0 0 0 26.667 0zm-5.105 22.423a5.212 5.212 0 0 1-2.37-.602 10.482 10.482 0 0 1-13.67-1.608.803.803 0 0 1 1.228-1.036 8.866 8.866 0 0 0 11.914 1.04.803.803 0 0 1 .986-.005 3.461 3.461 0 0 0 5.41-2.888 3.495 3.495 0 0 0-3.39-3.416c-.016 0-.036 0-.063-.002a.962.962 0 0 0-.12.003.806.806 0 0 1-.778-.455 6.54 6.54 0 0 0-5.992-3.848c-2.82 0-5.738 1.802-5.738 4.819-.003.818.35 1.596.969 2.132l1.688-3.147a.803.803 0 0 1 1.423.015l.982 1.926.983-1.926a.8.8 0 0 1 .71-.438c.3 0 .574.164.716.428l2.076 3.933a.8.8 0 0 1-.03.804.802.802 0 0 1-1.391-.054l-1.353-2.564-.995 1.95a.803.803 0 0 1-1.431-.001l-1-1.96-1.384 2.58a.805.805 0 0 1-1.046.349 4.563 4.563 0 0 1-2.524-4.027C7.372 10.403 11.107 8 14.717 8a8.081 8.081 0 0 1 7.209 4.308 5.063 5.063 0 0 1-.363 10.115z" fill="currentColor" fill-rule="evenodd"/></svg>