<svg xmlns="http://www.w3.org/2000/svg" viewBox="0 0 44 34.22" width="42" role="presentation" alt="" data-testid="MegaphoneDarkIcon" size="42" color="currentColor"><path fill-rule="evenodd" fill="currentColor" d="M29.55 0a1.91 1.91 0 0 1 1.93 1.87V10h.21a4.87 4.87 0 0 1 4.82 4.89v.2A4.87 4.87 0 0 1 31.69 20h-.21v8.1a1.91 1.91 0 0 1-1.93 1.87L19 22.45h-4.61l1.13 8.62a3.24 3.24 0 0 1-3.31 3.15h-1.66a3.24 3.24 0 0 1-3.31-3.15l-1.13-8.62H3.4A3.59 3.59 0 0 1 0 18.71v-7.49a3.6 3.6 0 0 1 3.4-3.74H18.95zm8.2 20.81a.6.6 0 0 1 .85.05l4.12 4.61a.62.62 0 0 1 0 .86.59.59 0 0 1-.41.16.6.6 0 0 1-.44-.2l-4.17-4.61a.63.63 0 0 1 .05-.87zm-6.06-8.39h-.21v5.09h.21a2.42 2.42 0 0 0 2.41-2.44v-.2a2.43 2.43 0 0 0-2.41-2.45zM43.4 14a.62.62 0 0 1 0 1.23h-4.67a.62.62 0 0 1 0-1.23h4.67zM41.83 3a.59.59 0 0 1 .85 0 .62.62 0 0 1 0 .86l-4.08 4.6a.62.62 0 0 1-.45.2.61.61 0 0 1-.4-.16.63.63 0 0 1 0-.87z"></path></svg>