<svg viewBox="0 0 54 54" fill="currentColor" stroke="currentColor" width="24" data-testid="heartspark" color="currentColor"><g class="hearts"><path class="heart heart-outline" d="M27 38.9c-.4 0-.6-.1-.8-.4L16.7 29c-1.8-1.8-2.7-3.8-2.7-6 0-4.4 3.5-8 7.9-8 1.9 0 3.7.8 5.1 2.3 1.4-1.4 3.2-2.3 5.1-2.3 4.4 0 7.9 3.6 7.9 8 0 2.6-1.5 4.6-2.7 6.1l-9.5 9.4c-.2.3-.6.4-.8.4zm-5.1-21.4c-3.1 0-5.6 2.5-5.6 5.6 0 1.9 1.1 3.3 2 4.3l8.6 8.7 8.5-8.6c1.4-1.5 2.1-3 2.1-4.4 0-3.1-2.5-5.6-5.6-5.6-1.5 0-3 1-4.1 2.5-.5.6-1.4.6-1.9 0-1-1.6-2.4-2.5-4-2.5z"/><path class="heart heart-filled" d="M32.1 15.1c-1.9 0-3.7.8-5.1 2.3-1.4-1.4-3.2-2.3-5.1-2.3-4.4 0-7.9 3.6-7.9 8 0 2.1.9 4.2 2.7 6l9.5 9.5c.2.2.5.4.8.4.2 0 .6-.1.8-.4l9.5-9.4c1.2-1.4 2.7-3.5 2.7-6.1 0-4.4-3.5-8-7.9-8z"/></g><g class="sparks" stroke-width="2"><path class="spark" d="M27 8V0m0 46v8m14.171-41.172 5.657-5.657m-33.999 5.657L7.171 7.172M46 27h8M8 27H0m41.172 14.172 5.657 5.656m-34-5.657-5.657 5.657"/></g></svg>