<svg xmlns="http://www.w3.org/2000/svg" viewBox="0 0 32 32" width="18" data-testid="GiftIcon" color="currentColor"><g fill="currentColor"><path d="M12.151 13.21c.204 0 .406-.035.599-.1.73-.171 1.2-.882 1.073-1.621a1.25 1.25 0 0 0-1.236-.739c-.203 0-.406.035-.598.1a1.417 1.417 0 0 0-1.073 1.621c.214.483.709.779 1.235.739zm-4.561 0a1.247 1.247 0 0 0 1.235-.739 1.414 1.414 0 0 0-1.073-1.62 1.84 1.84 0 0 0-.598-.1 1.247 1.247 0 0 0-1.235.738 1.415 1.415 0 0 0 1.073 1.62c.192.066.394.1.598.1z"/><path d="M0 8.533v4.8h4.897c-.5-.664-.65-1.53-.4-2.324A2.724 2.724 0 0 1 7.154 9.25 3.257 3.257 0 0 1 9 9.817V5.333H3.2a3.197 3.197 0 0 0-3.2 3.2zm28.8-3.2H11v4.318a3.336 3.336 0 0 1 1.587-.401 2.724 2.724 0 0 1 2.657 1.76c.25.793.1 1.659-.4 2.323H32v-4.8a3.2 3.2 0 0 0-3.2-3.2zM14.52 16.908a.75.75 0 1 1-.91 1.192L11 16.106v10.56h17.8a3.196 3.196 0 0 0 3.2-3.199v-8.134H12.46l2.06 1.575zm-8.843 1.346a.749.749 0 0 1-.456-1.346l2.061-1.575H0v8.134a3.2 3.2 0 0 0 3.2 3.2H9V15.908L6.131 18.1c-.13.1-.29.154-.454.154z"/></g></svg>