<svg xmlns="http://www.w3.org/2000/svg" viewBox="0 0 60 27.76" width="42" role="presentation" alt="" data-testid="ForKidsIcon" size="42" color="currentColor"><path d="M45.55,0c-8,0-14.46,6.21-14.46,13.88s6.47,13.88,14.46,13.88S60,21.55,60,13.88,53.53,0,45.55,0m0,3.75c5.9,0,10.7,4.55,10.7,10.13S51.45,24,45.55,24,34.84,19.46,34.84,13.88,39.64,3.75,45.55,3.75" fill="currentColor" fill-rule="evenodd"></path><path d="M43.66,11.28A1.75,1.75,0,0,1,41.93,13a1.67,1.67,0,0,1-1.74-1.6v-.13A1.74,1.74,0,1,1,43.66,11a1.13,1.13,0,0,1,0,.26m7.09,0A1.77,1.77,0,0,1,49,13a1.66,1.66,0,0,1-1.73-1.59v-.14A1.74,1.74,0,1,1,50.74,11a1.13,1.13,0,0,1,0,.26M45.4,20.39a7,7,0,0,1-5.21-2.32,1,1,0,0,1-.06-1.41.91.91,0,0,1,.21-.18,1.18,1.18,0,0,1,1.67.08l.06.07a4.76,4.76,0,0,0,3.33,1.44,5.06,5.06,0,0,0,3.47-1.44,1.32,1.32,0,0,1,1.73-.15,1.15,1.15,0,0,1,.15,1.59,7.08,7.08,0,0,1-5.35,2.32" fill="currentColor" fill-rule="evenodd"></path><path d="M14.45,0C6.47,0,0,6.21,0,13.88S6.47,27.76,14.45,27.76s14.46-6.21,14.46-13.88S22.44,0,14.45,0m0,3.75c5.91,0,10.71,4.55,10.71,10.13S20.36,24,14.45,24,3.75,19.46,3.75,13.88,8.55,3.75,14.45,3.75" fill="currentColor" fill-rule="evenodd"></path><path d="M12.57,11.28A1.75,1.75,0,0,1,10.84,13,1.67,1.67,0,0,1,9.1,11.4v-.12a1.67,1.67,0,0,1,1.6-1.74h.14a1.67,1.67,0,0,1,1.73,1.61v.13m7.09,0A1.76,1.76,0,0,1,17.92,13a1.67,1.67,0,0,1-1.74-1.6v-.13a1.74,1.74,0,1,1,3.48,0h0m-5.35,9.12A7,7,0,0,1,9.1,18.07,1,1,0,0,1,9,16.66a.91.91,0,0,1,.21-.18,1.18,1.18,0,0,1,1.67.08l.06.07a4.74,4.74,0,0,0,3.33,1.44,5.06,5.06,0,0,0,3.47-1.44,1.32,1.32,0,0,1,1.73-.15,1.15,1.15,0,0,1,.15,1.59,7.11,7.11,0,0,1-5.35,2.32" fill="currentColor" fill-rule="evenodd"></path></svg>