<svg viewBox="0 0 32 32" xmlns="http://www.w3.org/2000/svg" width="18" role="presentation" alt="" data-testid="ControllerIcon" size="18" color="currentColor"><path d="M27.136 12.803a1.187 1.187 0 1 1 0-2.373 1.187 1.187 0 0 1 0 2.373zm-2.506-2.17a1.186 1.186 0 1 1 0-2.372 1.186 1.186 0 0 1 0 2.372zm0 4.338a1.183 1.183 0 0 1-.837-2.022 1.183 1.183 0 0 1 2.022.838c0 .654-.53 1.184-1.185 1.184zm-2.507-2.168a1.185 1.185 0 1 1 0-2.37 1.185 1.185 0 0 1 0 2.37zm-1.903 5.692a1.805 1.805 0 1 1-.002-3.61 1.805 1.805 0 0 1 .002 3.61zm-6.805-1.805v.513a.255.255 0 0 1-.255.253c-.411-.002-.822-.003-1.233-.002a.1.1 0 0 0-.09.047.12.12 0 0 0-.015.059v1.233c0 .14-.112.253-.252.254h-1.027a.254.254 0 0 1-.253-.254l.001-1.233a.115.115 0 0 0-.017-.059.09.09 0 0 0-.087-.047c-.412 0-.824 0-1.234.002a.253.253 0 0 1-.253-.253v-1.028c0-.14.113-.252.253-.252l1.234.002a.108.108 0 0 0 .053-.015.093.093 0 0 0 .051-.09l-.001-1.235c0-.14.113-.253.253-.253h1.027c.14 0 .253.114.253.253l-.001 1.234c0 .028.01.055.03.075a.1.1 0 0 0 .075.03l1.233-.001c.14 0 .254.112.255.252v.515zm-6.4-3.269a1.804 1.804 0 1 1 0-3.608 1.804 1.804 0 0 1 0 3.608zm24.949 8.973c-.174-2.068-.594-4.118-.933-6.163-.335-2.022-.674-4.07-1.194-6.053a5.393 5.393 0 0 0-1.079-2.342.872.872 0 0 0-.209-.168c-.163-.254-.326-.89-.487-1.147-.813-1.227-2.611-1.557-3.946-1.725a4.29 4.29 0 0 0-2.24.06c-.417.166-.827.738-1.238.92-.256-.006-.51-.01-.762-.017a184.9 184.9 0 0 0-6.45-.023c-.685.008-1.379.013-2.075.028-.403-.177-.805-.746-1.213-.907a4.268 4.268 0 0 0-2.24-.06c-1.336.167-3.133.497-3.946 1.724-.16.256-.324.893-.487 1.147a.94.94 0 0 0-.21.168 3.594 3.594 0 0 0-.72 1.163 38.585 38.585 0 0 0-1.342 5.988C.83 17.023.456 19.076.188 21.126c-.231 1.777-.512 4.005.93 5.377.613.621 1.49.907 2.351.766a3.268 3.268 0 0 0 2.058-1.797c.489-.833.902-1.705 1.326-2.573.398-.816.847-1.933 1.851-2.112a10.19 10.19 0 0 1 1.755-.046h11.786c.849-.15 1.71.193 2.22.887a26.38 26.38 0 0 1 1.465 2.829c.81 1.551 1.999 3.54 4.066 2.644 1.864-.807 2.118-2.922 1.968-4.707z" fill="currentColor" fill-rule="evenodd"></path></svg>