<svg xmlns="http://www.w3.org/2000/svg" viewBox="0 0 32 32" width="30" data-testid="TwitterIcon" color="currentColor"><path d="M28.73 9.48v.85C28.75 19 22.16 29 10.11 29A18.65 18.65 0 0 1 .06 26a13.61 13.61 0 0 0 1.56.1 13.2 13.2 0 0 0 8.14-2.81 6.58 6.58 0 0 1-6.12-4.55 6.58 6.58 0 0 0 3-.12 6.54 6.54 0 0 1-5.26-6.42v-.08a6.46 6.46 0 0 0 3 .82 6.57 6.57 0 0 1-2-8.75 18.62 18.62 0 0 0 13.5 6.85A6.56 6.56 0 0 1 27 5.09a13.32 13.32 0 0 0 4.12-1.59 6.56 6.56 0 0 1-2.88 3.62 13 13 0 0 0 3.76-1 13.18 13.18 0 0 1-3.27 3.36z" fill="currentColor"/></svg>