<svg viewBox="0 0 32 32" xmlns="http://www.w3.org/2000/svg" width="18" role="presentation" alt="" data-testid="StarFilledIcon" size="18" color="currentColor"><path d="M31.993 12.369c-.107-.34-1.43-.62-5.599-1.09-2.626-.297-5.15-.455-5.175-.456a.577.577 0 0 1-.504-.37 137.666 137.666 0 0 0-1.982-4.837C17.093 1.821 16.428.71 15.973.713c-.412-.005-1.027 1.122-2.767 4.975a112.804 112.804 0 0 0-2.014 4.781.58.58 0 0 1-.506.367c-.025.002-2.527.146-5.13.43-4.145.453-5.48.706-5.552 1.069-.073.398.774 1.333 3.88 4.163a114.143 114.143 0 0 0 3.921 3.393.58.58 0 0 1 .193.594c-.006.025-.645 2.472-1.183 5.06-.615 2.958-1.072 5.368-.709 5.66.447.364 1.796-.484 5.182-2.416A123.355 123.355 0 0 0 15.75 26.1a.58.58 0 0 1 .622 0c.022.014 2.163 1.355 4.448 2.68 3.45 1.998 4.747 2.668 5.163 2.42.422-.301.042-2.118-.706-5.708a121.87 121.87 0 0 0-1.189-5.106.58.58 0 0 1 .195-.595c.019-.015 1.946-1.588 3.873-3.333 3.055-2.765 3.932-3.734 3.837-4.09" fill="currentColor" fill-rule="evenodd"></path></svg>