<svg xmlns="http://www.w3.org/2000/svg" viewBox="0 0 32 32" xml:space="preserve" width="42" role="presentation" alt="" data-testid="CalendarIcon" size="42" color="currentColor"><path fill="currentColor" d="M21.8 19.1h5.6c.5 0 .9-.4.9-.9v-5.6c0-.5-.4-.9-.9-.9h-5.6c-.5 0-.9.4-.9.9v5.6c0 .5.4.9.9.9zm0 8.6h5.6c.5 0 .9-.4.9-.9v-5.6c0-.5-.4-.9-.9-.9h-5.6c-.5 0-.9.4-.9.9v5.6c0 .5.4.9.9.9zm1.6-20.3h1.5c.5 0 .9-.4.9-.9v-5c0-.5-.4-.9-.9-.9h-1.5c-.5 0-.9.4-.9.9v5c0 .5.4.9.9.9zm-16.3 0h1.5c.5 0 .9-.4.9-.9v-5c0-.5-.4-.9-.9-.9H7.1c-.5 0-.9.4-.9.9v5c0 .5.4.9.9.9zm6.1 20.3h5.6c.5 0 .9-.4.9-.9v-5.6c0-.5-.4-.9-.9-.9h-5.6c-.5 0-.9.4-.9.9v5.6c0 .5.4.9.9.9z"></path><path fill="currentColor" d="M29.5 4.3H27v2.2c0 1.2-.9 2.1-2.1 2.1h-1.5c-1.2 0-2.1-1-2.1-2.1V4.3H10.7v2.2c0 1.2-.9 2.1-2.1 2.1H7.1C5.9 8.6 5 7.6 5 6.5V4.3H2.5C1.1 4.3 0 5.4 0 6.7V29c0 1.4 1.1 2.5 2.5 2.5h27c1.4 0 2.5-1.1 2.5-2.5V6.7c0-1.3-1.1-2.4-2.5-2.4zm0 24.7h-27V10.4h27V29z"></path><path fill="currentColor" d="M13.2 19.1h5.6c.5 0 .9-.4.9-.9v-5.6c0-.5-.4-.9-.9-.9h-5.6c-.5 0-.9.4-.9.9v5.6c0 .5.4.9.9.9zm-8.6 8.6h5.6c.5 0 .9-.4.9-.9v-5.6c0-.5-.4-.9-.9-.9H4.6c-.5 0-.9.4-.9.9v5.6c0 .5.4.9.9.9zm0-8.6h5.6c.5 0 .9-.4.9-.9v-5.6c0-.5-.4-.9-.9-.9H4.6c-.5 0-.9.4-.9.9v5.6c0 .5.4.9.9.9z"></path></svg>