<svg xmlns="http://www.w3.org/2000/svg" viewBox="0 0 32 32" xml:space="preserve" width="30" data-testid="InstagramIcon" color="currentColor"><path fill="currentColor" d="M24.506 5.514c-.511 0-.949.188-1.335.573-.385.376-.573.845-.573 1.397 0 .51.188.949.573 1.334.376.386.845.574 1.397.574.51 0 .949-.188 1.334-.574.376-.375.574-.823.574-1.334 0-.552-.188-1.011-.574-1.397-.375-.385-.844-.573-1.396-.573z"/><path fill="currentColor" d="M31.687 7.213a9.443 9.443 0 0 0-.51-1.689 7.692 7.692 0 0 0-.761-1.49 11.917 11.917 0 0 0-1.084-1.366c-.47-.427-.918-.792-1.366-1.084a7.403 7.403 0 0 0-1.49-.76 21.14 21.14 0 0 0-1.689-.48c-.615-.146-1.345-.24-2.189-.281-.844 0-1.616-.01-2.314-.032C19.586.011 18.158 0 16 0s-3.586.01-4.284.031c-.698.021-1.47.052-2.314.094-.844 0-1.574.073-2.189.219-.615.156-1.178.313-1.689.48-.51.208-.99.469-1.459.76-.469.303-.928.657-1.397 1.084-.427.47-.792.928-1.084 1.397-.291.47-.552.949-.76 1.46-.178.51-.334 1.073-.48 1.688-.146.615-.219 1.345-.219 2.189-.042.844-.073 1.616-.094 2.314C.011 12.414 0 13.842 0 16s.01 3.586.031 4.284c.021.698.052 1.47.094 2.314 0 .844.073 1.574.219 2.189.146.615.313 1.178.48 1.689.208.552.469 1.042.76 1.49.303.448.657.897 1.084 1.366.47.427.928.792 1.397 1.084.459.291.949.552 1.46.76.51.167 1.073.334 1.688.48.615.146 1.345.219 2.189.219.844.042 1.616.073 2.314.094.698.02 2.126.031 4.284.031s3.586-.01 4.284-.031a78.06 78.06 0 0 1 2.314-.032c.844-.041 1.574-.135 2.189-.281a26.634 26.634 0 0 0 1.689-.48 7.692 7.692 0 0 0 1.49-.76c.448-.303.897-.657 1.366-1.084.427-.47.792-.928 1.084-1.397.291-.459.552-.949.76-1.46.22-.51.386-1.073.511-1.688s.209-1.345.25-2.189c0-.844.01-1.616.032-2.314.02-.698.031-2.126.031-4.284v-4.284c0-.698-.02-1.47-.063-2.314a14.798 14.798 0 0 0-.25-2.189zm-2.574 13.008c-.021.657-.052 1.408-.094 2.252-.042.76-.115 1.376-.219 1.845a7.77 7.77 0 0 1-.354 1.146 3.9 3.9 0 0 1-.48.98c-.187.271-.417.563-.667.855a8.21 8.21 0 0 1-.886.667c-.292.188-.615.375-.948.542-.303.084-.678.177-1.147.282-.47.104-1.084.177-1.845.218-.844.042-1.605.073-2.283.094-.677.021-2.074.032-4.19.032s-3.513-.01-4.19-.032c-.678-.02-1.439-.052-2.283-.094-.76-.041-1.376-.114-1.845-.218s-.855-.198-1.146-.282a10.26 10.26 0 0 1-.949-.542 8.21 8.21 0 0 1-.886-.667c-.25-.292-.48-.584-.667-.855a3.435 3.435 0 0 1-.48-.98 6.029 6.029 0 0 1-.354-1.146c-.104-.47-.177-1.084-.219-1.845-.042-.844-.073-1.595-.094-2.251-.02-.657-.031-2.064-.031-4.222 0-2.116.01-3.513.031-4.19.021-.678.052-1.439.094-2.283.042-.76.115-1.376.219-1.845.115-.469.23-.834.354-1.084.125-.386.292-.73.48-1.021.187-.292.417-.574.667-.824.292-.292.594-.542.886-.73.292-.198.605-.354.949-.479.302-.136.677-.25 1.146-.354s1.084-.178 1.845-.22a46.697 46.697 0 0 1 2.283-.062h8.38c.677 0 1.439.021 2.283.063.76.041 1.376.114 1.845.219.469.114.855.229 1.146.354.334.125.657.292.949.48.292.187.594.416.886.667.25.291.48.594.667.886.198.291.355.615.48.948.135.302.25.678.354 1.147s.177 1.084.219 1.845c.042.854.073 1.615.094 2.293.02.677.031 2.074.031 4.19 0 2.158-.01 3.565-.031 4.221z"/><path fill="currentColor" d="M15.99 7.797c-2.294 0-4.232.802-5.817 2.387C8.578 11.779 7.786 13.717 7.786 16c0 2.293.792 4.221 2.387 5.816 1.595 1.595 3.523 2.387 5.817 2.387s4.231-.802 5.816-2.387c1.584-1.595 2.376-3.533 2.387-5.816 0-2.293-.803-4.232-2.387-5.816-1.595-1.595-3.523-2.387-5.816-2.387zm3.783 11.987c-1.042 1.032-2.303 1.553-3.783 1.553-1.491 0-2.742-.51-3.784-1.553-1.032-1.043-1.553-2.304-1.553-3.784 0-1.49.51-2.741 1.553-3.784 1.042-1.032 2.303-1.553 3.784-1.553s2.74.521 3.783 1.553c1.032 1.043 1.553 2.304 1.553 3.784 0 1.49-.51 2.741-1.553 3.784z"/></svg>