<svg xmlns="http://www.w3.org/2000/svg" viewBox="0 0 32 32" width="42" role="presentation" alt="" data-testid="NsoIcon" size="42" color="currentColor"><path fill="currentColor" d="M0 0v32h32V0zm8.785 9.232a3.7 3.7 0 0 1 3.7-3.7h3.154a.106.106 0 0 1 .106.106v14.218a.106.106 0 0 1-.106.106h-3.154a3.7 3.7 0 0 1-3.7-3.7zM6.767 26.596a2.034 2.034 0 1 1 2.064-2.034 2.05 2.05 0 0 1-2.064 2.034zm6.473-.124h-.677l-2.032-2.547v2.547h-.773v-3.82h.77l1.9 2.464v-2.464h.812zm4.025 0H14.35v-3.82h.82v3.075h2.094zm1.616 0h-.82v-3.82h.82zm-1.586-6.51a.105.105 0 0 1-.106-.106V5.626a.093.093 0 0 1 .094-.094h2.232a3.7 3.7 0 0 1 3.7 3.7v7.03a3.7 3.7 0 0 1-3.7 3.7zm6.178 6.51h-.676l-2.033-2.547v2.547h-.772v-3.82h.769l1.901 2.464v-2.464h.811zm4.27-3.075H25.41v.76h2.22v.707h-2.22v.863h2.333v.745H24.59v-3.82h3.154z"></path><path fill="currentColor" d="M6.767 23.306a1.257 1.257 0 1 0 1.214 1.256 1.236 1.236 0 0 0-1.214-1.256zm5.718-4.508h2.097V6.696h-2.097A2.536 2.536 0 0 0 9.95 9.232v7.03a2.536 2.536 0 0 0 2.536 2.536zm-.097-10.294a1.357 1.357 0 1 1-1.356 1.356 1.357 1.357 0 0 1 1.356-1.356zm7.655 3.506a1.459 1.459 0 1 0 1.46 1.458 1.459 1.459 0 0 0-1.46-1.458z"></path></svg>