<svg xmlns="http://www.w3.org/2000/svg" viewBox="0 0 32 32" width="18" data-testid="SupportIcon" color="currentColor"><path d="M28.126.862H3.876A3.904 3.904 0 0 0 0 4.757v17.838a3.905 3.905 0 0 0 3.875 3.896h8.375c.125 0 .125 0 .125.125l3.626 4.397a.122.122 0 0 0 .125.125c.125 0 .125 0 .25-.125L20 26.616a.122.122 0 0 1 .124-.125h8.001A3.904 3.904 0 0 0 32 22.595V4.757A3.903 3.903 0 0 0 28.126.862zM17.954 20.91a2.018 2.018 0 0 1-.438.64 2.062 2.062 0 0 1-1.446.58 2.092 2.092 0 0 1-.802-.154 1.944 1.944 0 0 1-.652-.43 1.98 1.98 0 0 1-.427-.642 2.119 2.119 0 0 1-.001-1.59 1.97 1.97 0 0 1 .43-.65 2.055 2.055 0 0 1 .643-.432 2.078 2.078 0 0 1 1.613 0 2.152 2.152 0 0 1 .64.428l.002.001a2.045 2.045 0 0 1 .438 2.25zm2.964-10.055a4.505 4.505 0 0 1-.662 1.159 5.04 5.04 0 0 1-.861.844l-.822.622a6.01 6.01 0 0 0-.626.538.766.766 0 0 0-.231.426l-.303 1.923h-2.517l-.222-2.13a1.824 1.824 0 0 1 .193-1.127 3.152 3.152 0 0 1 .648-.812 7.965 7.965 0 0 1 .838-.658 6.94 6.94 0 0 0 .782-.626 3.116 3.116 0 0 0 .574-.716 1.726 1.726 0 0 0 .208-.873 1.287 1.287 0 0 0-.112-.55 1.213 1.213 0 0 0-.318-.414 1.482 1.482 0 0 0-.506-.275 2.946 2.946 0 0 0-1.628.018 3.595 3.595 0 0 0-.666.277 8.824 8.824 0 0 0-.49.294.966.966 0 0 1-1.483-.33l-.872-1.378.24-.212a8 8 0 0 1 .86-.657 6.234 6.234 0 0 1 1.023-.55 6.4 6.4 0 0 1 1.192-.37 6.63 6.63 0 0 1 3.248.15 4.301 4.301 0 0 1 1.475.826 3.736 3.736 0 0 1 .966 1.314 4.161 4.161 0 0 1 .34 1.703 4.304 4.304 0 0 1-.268 1.584z" fill="currentColor" fill-rule="evenodd"/></svg>