<svg xmlns="http://www.w3.org/2000/svg" viewBox="0 0 32 32" width="18" data-testid="GearIcon" color="currentColor"><path d="M30.6 13.1h-2.4c-.3-1.4-.8-2.6-1.5-3.8l1.7-1.7c.5-.5.5-1.4 0-1.9l-2.1-2.1c-.5-.5-1.4-.5-1.9 0l-1.7 1.7c-1.2-.7-2.4-1.3-3.8-1.5V1.4c0-.7-.6-1.4-1.4-1.4h-3c-.7 0-1.4.6-1.4 1.4v2.4c-1.4.4-2.6.8-3.8 1.5L7.6 3.6c-.5-.5-1.4-.5-1.9 0L3.6 5.7c-.6.5-.6 1.4 0 1.9l1.7 1.7c-.7 1.2-1.3 2.4-1.5 3.8H1.3c-.7 0-1.4.6-1.4 1.4v3c0 .7.6 1.4 1.4 1.4h2.4c.3 1.4.8 2.6 1.5 3.8l-1.7 1.7c-.5.5-.5 1.4 0 1.9l2.1 2.1c.6.5 1.4.5 2 0l1.7-1.7c1.2.7 2.4 1.3 3.8 1.5v2.5c0 .7.6 1.4 1.4 1.4h3c.7 0 1.4-.6 1.4-1.4v-2.4c1.4-.3 2.6-.8 3.8-1.5l1.7 1.7c.5.5 1.4.5 1.9 0l2.1-2.1c.5-.5.5-1.4 0-1.9l-1.7-1.7c.7-1.2 1.3-2.4 1.5-3.8h2.4c.7 0 1.4-.6 1.4-1.4v-3c.1-.9-.6-1.5-1.4-1.5zM16 21.6c-3.1 0-5.6-2.5-5.6-5.6 0-3.1 2.5-5.6 5.6-5.6 3.1 0 5.6 2.5 5.6 5.6-.1 3.1-2.6 5.6-5.6 5.6z" fill-rule="evenodd" clip-rule="evenodd" fill="currentColor"/></svg>