<svg viewBox="0 0 32 32" xmlns="http://www.w3.org/2000/svg" width="18" role="presentation" alt="" data-testid="CharacterIcon" size="18" color="currentColor"><path d="M29.399 25.007a5.387 5.387 0 0 0-.539-.329 1.978 1.978 0 0 0-1.844-1.78 2.688 2.688 0 0 0-2.383 1.43.834.834 0 0 0-1.218.222 20.438 20.438 0 0 0-2.64-1.37 6.13 6.13 0 0 0 .37-3.363c.58.065 1.117.116 1.27.12.347.02.692-.053 1-.211.632-.352 1.238-.75 1.813-1.189a.769.769 0 0 0 1.138-.814 3.835 3.835 0 0 0 2.865-2.689c.244-.795.047-1.342-.258-1.53a1.045 1.045 0 0 0-.975-1.343.963.963 0 0 0-1.241-.945c-.055-.397-.456-.644-.984-.546a2.55 2.55 0 0 0-1.647 1.42.916.916 0 0 0-1.11.15 2.786 2.786 0 0 0-.233 2.614c-.397-.14-.968.41-.606 1.097l-.347.215c-.171.11-.171.11-.562.078a10.434 10.434 0 0 1-2.21-.64 2.688 2.688 0 0 0 2.027-1.465.812.812 0 0 0 .597-1.159c.605-.206.944-.848.773-1.463a2.574 2.574 0 0 0 1.989-1.19c.992-1.84-.385-3.705-2.043-3.261a4.432 4.432 0 0 0-1.89 1.066c-.268-.679-.57-1.354-.808-1.909.902-.561 3.233-3.42 2.73-3.966-.493-.535-2.798.185-3.842.805A5.003 5.003 0 0 0 17.372.72c-.87-.87-2.28-1.046-3.887 0A10.588 10.588 0 0 0 9.48 7.816c-3.033 1.276-2.201 4.364 1.046 4.895.151.452.44.846.828 1.124-.78.219-.473 1.068.296 1.073-.944.073-1.88.22-2.802.438a.893.893 0 0 0-1.594.024 3.87 3.87 0 0 0-2.708-.288 2.192 2.192 0 0 0-1.826 2.44 1.252 1.252 0 0 0 .126 1.781.975.975 0 0 0 .757 1.458c-.183.918 1.05 1.592 2.657.532 1.05.977 2.412.052 2.599-1.652.457.248 1.007-.012 1.066-.689a19.002 19.002 0 0 1 2.963-.433c0 .493-.091.981-.27 1.44a3.973 3.973 0 0 0-.444 4.064.67.67 0 0 1-.223.187 14.946 14.946 0 0 0-.738-.363.681.681 0 0 0-.984-.609 1.634 1.634 0 0 0-2.02-.76 2.25 2.25 0 0 0-.649-.177.52.52 0 0 0-.548.231 7.972 7.972 0 0 0-.818 1.792.288.288 0 0 0 .084.333c.074.062.154.117.24.162a9.789 9.789 0 0 0-2.058 4.078c-.08.359-.045.583.126.691.183.123.38.226.585.307.196.98 1.08 1.67 2.079 1.622a3.013 3.013 0 0 0 2.417-2.06c.272.003.53-.12.698-.335a6.07 6.07 0 0 0 3.456.771 5.93 5.93 0 0 0 3.13-2.516 22.596 22.596 0 0 1 5.152 2.5c.054.52.51.903 1.03.867.36.859 1.445 1.358 2.015 1.007.223.083.45.154.68.211.328.077.377.04.526-.14.364-.457.667-.958.9-1.492.114-.259.125-.423.014-.546a1.667 1.667 0 0 0-.234-.193 8.894 8.894 0 0 0 2.529-4.01c.07-.329.013-.44-.164-.575" fill="currentColor" fill-rule="evenodd"></path></svg>