<svg xmlns="http://www.w3.org/2000/svg" viewBox="0 0 114.03 154.33"><defs><style>.cls-1{fill:#fff}.cls-2{fill:#231f20}.cls-3{fill:#085ea9}</style></defs><path class="cls-1" d="M114.04 0H.04v154.33h114V0z"/><path class="cls-2" d="M112.38 1.66v151.01H1.66V1.66h110.72"/><path class="cls-1" d="M7.67 7.31h98.75v23.03H7.67zm.18 28.72h98.57v89.82H7.85z"/><path class="cls-2" d="M13.46 11.73c2.18 0 3.11.59 3.11 2.57v3c0 1.88-.89 2.59-3 2.59h-.51v6.12h-1.71V11.73zm-.35 6.71h.31c1.07 0 1.29-.42 1.29-1.71v-1.9c0-1.28-.22-1.68-1.29-1.68h-.31zm6.85-6.71c2.1 0 3 .55 3 2.37v2.3c0 1.44-.52 2.07-2 2.23 1.58.12 2.05.77 2.05 2.38v5h-1.89v-5c0-1.27-.17-1.62-1.46-1.62h-.37V26h-1.81V11.73zm-.67 6.2h.38c1.19 0 1.44-.37 1.44-1.62v-1.58c0-1.24-.25-1.62-1.44-1.62h-.38zm7.06-6.2v14.24h-1.88V11.73zm2.53 0 1.33 12h.14l1.24-12h1.63L31.4 25.97h-2.36l-1.98-14.24zm8.99 0 2.16 14.25h-1.86l-.46-3.63h-2.37l-.54 3.63h-1.74l2.32-14.25zm-2.34 9.18h2l-.89-7.64h-.08zm10.51-5.27H44.2v-1c0-1.14-.15-1.72-.77-1.72-.81 0-.91.62-.91 2v7.81c0 1.37.08 2 .87 2s.81-.51.81-1.64v-1.28h1.86v1.31c0 2.23-.61 3.09-2.71 3.09s-2.69-1.15-2.69-3.83V15.3c0-2.69.56-3.8 2.73-3.8s2.65.85 2.65 3.07zm1.88-3.91 1.27 6.3h.1l1.19-6.3h1.74l-2.2 8.31v5.94h-1.84v-5.95l-2.14-8.3zm13.03 3.91h-1.84v-1c0-1.14-.16-1.72-.77-1.72-.82 0-.91.62-.91 2v7.81c0 1.37.07 2 .87 2 .63 0 .81-.51.81-1.64v-1.28h1.86v1.31c0 2.23-.61 3.09-2.71 3.09s-2.7-1.15-2.7-3.83V15.3c0-2.69.56-3.8 2.74-3.8s2.65.85 2.65 3.07zm5.34-3.91v1.5h-2.45v4.5h2.3v1.51h-2.3v5.18h2.55v1.51H62v-14.2zm3.71 0c2.09 0 3 .55 3 2.37v2.3c0 1.44-.52 2.07-2 2.23 1.58.12 2 .77 2 2.38v5h-1.84v-5c0-1.27-.17-1.62-1.46-1.62h-.41V26h-1.77V11.73zm-.71 6.2h.38c1.19 0 1.44-.37 1.44-1.62v-1.58c0-1.24-.25-1.62-1.44-1.62h-.38zm9.65-6.2v1.5h-1.72v12.74h-1.86V13.22h-1.72v-1.49zm2.6 0v14.24h-1.88V11.73zm5.8 0v1.5h-2.42v4.65h2.28v1.51h-2.28v6.59h-1.84V11.73zm2.81 0v14.24h-1.86V11.73zm5.8 0v1.5h-2.42v4.5h2.3v1.51h-2.3v5.18h2.55v1.51h-4.39v-14.2zm3.2 0c3 0 3.62.81 3.62 4v6.34c0 3.13-.63 4-3.62 4h-1.94V11.73zm-.1 12.78h.38c1.23 0 1.48-.34 1.48-1.56v-8.22c0-1.22-.27-1.56-1.48-1.56h-.38z"/><path class="cls-1" d="M7.96 145.46v-13.51h19.86v3.16H15.94v1.93h10.05v3.15H15.94v2.11h12.34v3.16H7.96zm37.19-9.58a1.52 1.52 0 0 0-1.15-.91 7.35 7.35 0 0 0-2.06-.25c-1.76 0-2.54.28-2.54.78 0 2 14 .75 14 5.66 0 3.13-4.7 4.66-11.39 4.66-6.42 0-10.61-2.08-10.78-4.53h7.64a1.87 1.87 0 0 0 1.32 1.07 7.07 7.07 0 0 0 2.27.34c2 0 3.32-.35 3.32-1 0-2-14-.64-14-5.79 0-2.87 4.47-4.31 10.55-4.31 6.76 0 9.84 1.92 10.42 4.27zm20.19 1.92h3.14c2.46 0 3.79-.35 3.79-1.28s-1.35-1.41-3.21-1.41h-3.72zm0 3v4.71h-8v-13.56h11.5c8.1 0 10.77 1.24 10.77 3.86 0 1.56-1.24 2.86-4.08 3.31 2.56.52 4.12.84 4.12 3.56 0 1.76-.1 2.36.84 2.36v.42h-8.06a5.38 5.38 0 0 1-.4-2.37c0-1.77-.54-2.34-4.26-2.34zm27.17-5.69v2.26h3.32c1.59 0 2.75-.41 2.75-1.18 0-1.06-1.58-1.08-3.25-1.08zm0 4.71v2.48h3.48c2 0 3.46-.22 3.46-1.23 0-1.18-1.85-1.25-4.41-1.25zm-8 5.64v-13.51h11.63c5.49 0 9.84.73 9.84 3.41 0 1.39-1.63 2.4-3.18 2.93 2.64.38 4 1.64 4 3.09 0 3-4.15 4.08-10.48 4.08zM18.98 65.88a6 6 0 0 0-3.16 5.62c.14 2.7 1.76 4.26 4.1 5.39-1.34 2.16-1.92 4.33-.73 6.65s3.35 3.19 5.86 3.19v1.74a5.7 5.7 0 0 0 7.63 5.59c1.09-.37 1.42-.1 1.77.91a5.73 5.73 0 0 0 9.4 2.32c.31-.29.64-.55 1-.86 1.61 2.07 3.55 3.11 6.13 2.69s3.94-2.33 4.87-4.64c2.34 1.21 4.56 1.44 6.73 0s2.67-3.66 2.51-6.18c2.54 0 4.72-.51 6.12-2.72s1-4.5-.18-6.78c2.41-.94 4.11-2.35 4.5-5s-.86-4.52-2.85-6a3.07 3.07 0 0 1 .33-.49 5.89 5.89 0 0 0-2.64-10.11c-.8-.17-.69-.59-.6-1.24a9.62 9.62 0 0 0 .19-3.41c-.62-3-3-4.53-6.4-4.3-.94.06-1.31-.09-1.41-1.15a5.44 5.44 0 0 0-5.86-5.1 21.65 21.65 0 0 0-4.12 1.13c-1-1.94-2.6-3.53-5.25-3.63s-4.42 1.31-5.77 3.57c-2-1.68-4.14-2.38-6.56-1.43s-3.45 3-3.77 5.57l-.84-.16c-5.21-1.08-8.4 3.34-7.12 7.34.23.72-.1.94-.8 1.1-3.46.83-5.3 3.45-4.65 6.81a18.4 18.4 0 0 0 1.57 3.58z"/><path class="cls-1" d="M78.42 72.51a1.59 1.59 0 0 0-.13.39 8.78 8.78 0 0 1-3.3 6.83 1.77 1.77 0 0 0-.32 1.38 8.47 8.47 0 0 1-6 9.48 6.24 6.24 0 0 0-1.06.6 5.21 5.21 0 0 0 1 .93q9.4 5.07 18.85 10.09c.32.17.67.31 1 .46V91.26a2 2 0 0 1 .76-1.41c1.39-1 2.87-1.9 4.31-2.84l5.39-3.51zm-23.7 50.57c.35-.42.61-.7.86-1 2.12-2.65 4.23-5.33 6.39-8a1.83 1.83 0 0 1 1.25-.66c1.47.08 2.94.31 4.41.48l7.35.82-8.45-20.51c-2.72 3.21-4.61 4-8.62 3.81a2 2 0 0 0-1.34.66 8.1 8.1 0 0 1-6.71 3.13 29.33 29.33 0 0 1-4.2-.77c3.01 7.33 6 14.61 9.06 22.04zm43.96-8.61a4.49 4.49 0 0 0-4.56 4.57 4.55 4.55 0 0 0 4.55 4.49 4.49 4.49 0 0 0 4.53-4.6 4.42 4.42 0 0 0-4.52-4.46z"/><path class="cls-3" d="M18.98 65.88a18.4 18.4 0 0 1-1.59-3.58c-.65-3.36 1.19-6 4.65-6.81.7-.16 1-.38.8-1.1-1.28-4 1.91-8.42 7.12-7.34l.84.16c.32-2.53 1.3-4.6 3.77-5.57s4.54-.25 6.56 1.43c1.35-2.26 3.09-3.67 5.77-3.57s4.2 1.69 5.25 3.63A21.65 21.65 0 0 1 56.29 42a5.44 5.44 0 0 1 5.89 5.08c.1 1.06.47 1.21 1.41 1.15 3.36-.23 5.78 1.34 6.4 4.3a9.62 9.62 0 0 1-.19 3.41c-.09.65-.2 1.07.6 1.24a5.89 5.89 0 0 1 2.64 10.11 3.07 3.07 0 0 0-.33.49c2 1.53 3.24 3.41 2.85 6s-2.09 4-4.5 5c1.18 2.28 1.61 4.53.18 6.78s-3.58 2.76-6.12 2.72c.16 2.52-.33 4.72-2.51 6.18s-4.39 1.22-6.73 0c-.93 2.31-2.23 4.21-4.87 4.64s-4.52-.62-6.13-2.69c-.38.31-.71.57-1 .86a5.73 5.73 0 0 1-9.4-2.32c-.35-1-.68-1.28-1.77-.91a5.7 5.7 0 0 1-7.63-5.59v-1.74c-2.51 0-4.64-.83-5.86-3.19s-.61-4.49.73-6.65c-2.34-1.13-4-2.69-4.1-5.39a6 6 0 0 1 3.13-5.6zm27 28.63a25.06 25.06 0 1 0-25-25.27 25.14 25.14 0 0 0 24.99 25.27z"/><path class="cls-3" d="m78.42 72.51 20.51 11-5.39 3.51c-1.44.94-2.92 1.82-4.31 2.84a2 2 0 0 0-.76 1.41c-.06 3.76 0 7.52 0 11.41-.33-.15-.68-.29-1-.46q-9.44-5-18.85-10.09a5.21 5.21 0 0 1-1-.93 6.24 6.24 0 0 1 1.06-.6 8.47 8.47 0 0 0 6-9.48 1.77 1.77 0 0 1 .31-1.39 8.78 8.78 0 0 0 3.3-6.8 1.59 1.59 0 0 1 .13-.42zm-23.7 50.57c-3.06-7.43-6.05-14.71-9.06-22a29.33 29.33 0 0 0 4.2.77 8.1 8.1 0 0 0 6.71-3.12 2 2 0 0 1 1.34-.66c4 .18 5.9-.6 8.62-3.81l8.45 20.47-7.35-.82c-1.47-.17-2.94-.4-4.41-.48a1.83 1.83 0 0 0-1.25.66c-2.16 2.63-4.27 5.31-6.39 8-.29.29-.51.57-.86.99z"/><path class="cls-1" d="M45.97 94.51a25.06 25.06 0 1 1 25.21-25 25.08 25.08 0 0 1-25.21 25zm-12-25.86.65-6.65a14.89 14.89 0 0 1-6.86-4.66c-2.09 2.6-3.88 8.27-3.59 11.31zm-9.92 1.83a22.69 22.69 0 0 0 3.66 11.41c1.81-2.48 4.34-3.74 6.92-4.78l-.67-6.63zm40.44-13.19a14.7 14.7 0 0 1-6.36 4.51 1.18 1.18 0 0 0-.51 1c.09 1.64.34 3.26.41 4.89 0 .84.3 1.12 1.13 1.1h5.76c3.37-.06 3.37-.06 2.83-3.38a20.6 20.6 0 0 0-3.26-8.12zm0 24.58a21 21 0 0 0 3.49-10.76c0-.22-.6-.67-.93-.67-2.67-.06-5.36 0-8 0-.72 0-1 .25-1 1-.1 1.68-.33 3.34-.42 5a1.18 1.18 0 0 0 .52 1 14.67 14.67 0 0 1 6.36 4.43zM53.36 53.73c-2.35.47-4.29.85-6.23 1.28-.26.06-.65.39-.66.61v6.66l9.52-1.3zm2.52 24.7a31.74 31.74 0 0 0-9.39-1.32v6.74l6.8 1.66zm-11-23.25-6-1.61-2.59 7.35 8.59 1.29zm0 28.78v-7l-8.59 1.28 2.68 7.32zm1.62-15.23h9.45a1 1 0 0 0 .64-.74 58.72 58.72 0 0 0-.45-4.77.86.86 0 0 0-.72-.5c-2.95.44-5.89.94-8.92 1.43zm0 6.28c3 .49 5.85.94 8.68 1.43.67.12 1 0 1-.73.11-1.35.26-2.7.41-4 .11-.9-.15-1.3-1.16-1.28-2.64.07-5.28 0-7.93 0a9.25 9.25 0 0 0-1 .11zM36.08 62.66l-.55 6h9.31V64zm0 13.8 8.79-1.33v-4.61h-9.35zm21.21-16.27a11.34 11.34 0 0 0 5.76-3.73 1.21 1.21 0 0 0-.06-1.18c-1.7-1.55-3.39-3.12-5.15-4.61a1.06 1.06 0 0 0-1 0c-.81.63-1.55 1.36-2.25 2zm-2.72 26.3c.7.62 1.41 1.32 2.19 1.93a1.09 1.09 0 0 0 1 .07q2.68-2.27 5.27-4.65a1.06 1.06 0 0 0 .14-1 11.34 11.34 0 0 0-5.88-3.9zM34.96 60.26c.59-1.77 1.09-3.36 1.65-4.93.31-.86 1.1-1.77 1-2.51s-1.32-1.21-1.91-1.89-.92-.68-1.49-.18l-4.92 4.37c-.64.57-.46 1.08 0 1.65a13.86 13.86 0 0 0 5.67 3.49zm-.05 18.65a12.48 12.48 0 0 0-5.56 3.49c-.25.3-.48 1-.32 1.22a19.64 19.64 0 0 0 5.95 5.21l2.66-2.35zm11.58 12.11c2.63-.23 4.17-1.86 5.66-3.87a11.38 11.38 0 0 0-5.66-1.14zm0-42.93v5.34l5.8-1.27c-1.61-2.19-3.17-3.76-5.76-4.07zm-1.69.13c-2.13.61-3.48 2-4.86 3.88l4.86 1.24zm-4.87 38.8c1.41 1.93 2.77 3.31 4.86 3.89V85.8zm-3.64-37.63 2.27 1.79 3-3.36-.1-.21zm0 40.34 5.22 1.78.08-.19-3-3.38zm17.36-1.8-3.06 3.41.07.19 5.25-1.8zm0-36.74 2.23-1.82-5.22-1.76v.22z"/><path class="cls-3" d="M34 68.65h-9.8c-.29-3 1.5-8.71 3.59-11.31A14.89 14.89 0 0 0 34.65 62zm-9.92 1.83h9.91l.67 6.63c-2.58 1-5.11 2.3-6.92 4.78a22.69 22.69 0 0 1-3.66-11.41zm40.41-13.19a20.6 20.6 0 0 1 3.26 8.12c.54 3.32.54 3.32-2.83 3.32h-5.76c-.83 0-1.09-.26-1.13-1.1-.07-1.63-.32-3.25-.41-4.89a1.18 1.18 0 0 1 .51-1 14.7 14.7 0 0 0 6.36-4.45zm.02 24.58a14.67 14.67 0 0 0-6.37-4.53 1.18 1.18 0 0 1-.52-1c.09-1.67.32-3.33.42-5 0-.72.28-1 1-1h8c.33 0 .94.45.93.67a21 21 0 0 1-3.46 10.86zM53.36 53.73l2.6 7.25-9.52 1.3v-6.66c0-.22.4-.55.66-.61 1.97-.44 3.91-.82 6.26-1.28zm2.52 24.7-2.59 7.08-6.8-1.66v-6.74a31.74 31.74 0 0 1 9.39 1.32zM44.86 55.18v7l-8.57-1.26 2.64-7.35zm-.02 28.78-5.9 1.6-2.65-7.32 8.58-1.33zm1.66-15.23v-4.61c3-.49 6-1 8.92-1.43a.86.86 0 0 1 .72.5c.21 1.58.37 3.18.45 4.77a1 1 0 0 1-.64.74c-3.12.03-6.23.03-9.45.03zm0 6.28v-4.49a9.25 9.25 0 0 1 1-.11h7.93c1 0 1.27.38 1.16 1.28-.15 1.35-.3 2.7-.41 4-.06.7-.36.85-1 .73-2.83-.47-5.66-.92-8.68-1.41zM36.08 62.66 44.84 64v4.65h-9.31zm0 13.8-.56-5.94h9.35v4.61zm21.21-16.27-2.72-7.53c.7-.63 1.44-1.36 2.25-2a1.06 1.06 0 0 1 1 0c1.76 1.49 3.49 3 5.16 4.61a1.21 1.21 0 0 1 .06 1.18 11.34 11.34 0 0 1-5.75 3.74zm-2.71 26.3 2.71-7.55a11.34 11.34 0 0 1 5.88 3.89 1.06 1.06 0 0 1-.14 1q-2.58 2.39-5.27 4.65a1.09 1.09 0 0 1-1-.07c-.77-.6-1.47-1.3-2.18-1.92zM34.96 60.26a13.86 13.86 0 0 1-5.67-3.53c-.49-.57-.67-1.08 0-1.65l4.92-4.35c.57-.5 1-.39 1.49.18s1.72 1.17 1.86 1.89-.64 1.65-1 2.51c-.51 1.59-1.01 3.18-1.6 4.95zm-.05 18.65 2.73 7.57-2.66 2.35a19.64 19.64 0 0 1-5.95-5.21c-.16-.21.07-.92.32-1.22a12.48 12.48 0 0 1 5.56-3.49zm11.58 12.11v-5a11.38 11.38 0 0 1 5.66 1.14c-1.49 2-3.03 3.63-5.66 3.86zm.04-42.93c2.59.31 4.15 1.88 5.74 4.07l-5.74 1.27zm-1.69.13v5.12l-4.86-1.24c1.38-1.89 2.73-3.27 4.86-3.88zm-4.87 38.8 4.86-1.22v5.11c-2.09-.58-3.45-1.96-4.86-3.89zm-3.68-37.63 5.18-1.78.1.21-3 3.36zm0 40.34 2.27-1.79 3 3.38-.08.19zm17.37-1.79 2.25 1.79-5.24 1.8-.07-.19zm.01-36.74-3-3.36v-.22l5.22 1.76z"/><path class="cls-1" d="m97.64 118.59.1-1.68c.67.19 1.24.34 1.79.54.06 0 .06.49 0 .52-.55.22-1.12.38-1.89.62z"/><path d="M98.59 118.39c.8 0 1-.34 1-.71s-.19-.59-.87-.59h-1v1.3zm-.9.8v2.17h-.85v-5.06h1.76c1 0 2 .25 2 1.4a1.19 1.19 0 0 1-1.09 1.19c.74.14.83.46.92 1a6.6 6.6 0 0 0 .32 1.45h-1.09c-.06-.28-.14-.62-.17-.9-.06-.44-.06-.85-.31-1.08a1.26 1.26 0 0 0-.8-.19h-.71m4.79-.3a3.82 3.82 0 1 0-3.8 3.56 3.67 3.67 0 0 0 3.8-3.56m-8.45 0a4.65 4.65 0 1 1 4.65 4.31 4.47 4.47 0 0 1-4.65-4.31" fill="#151011"/></svg>