<svg xmlns="http://www.w3.org/2000/svg" viewBox="0 0 32 32" width="18" data-testid="SwitchIcon" color="currentColor"><path d="M13.54 0a.18.18 0 0 1 .17.17v31.66a.15.15 0 0 1-.17.17H8.11a6.86 6.86 0 0 1-6.85-6.8V6.74A6.81 6.81 0 0 1 8.11 0h5.43zm10.4 0a6.77 6.77 0 0 1 6.8 6.74V25.2a6.82 6.82 0 0 1-6.85 6.8h-5.43a.15.15 0 0 1-.17-.17V.17c0-.11.11-.17.22-.17h5.43zM7.49 19.6a1.26 1.26 0 1 0 0 2.51 1.32 1.32 0 0 0 1.31-1.25 1.28 1.28 0 0 0-1.31-1.26zm17-3.6a2.86 2.86 0 0 0-2.85 2.86A2.86 2.86 0 1 0 24.51 16zm-14.28.86a1.26 1.26 0 1 0 0 2.51 1.35 1.35 0 0 0 1.31-1.26 1.32 1.32 0 0 0-1.29-1.25zm-5.49 0a1.26 1.26 0 1 0 0 2.51 1.36 1.36 0 0 0 1.32-1.26 1.28 1.28 0 0 0-1.3-1.25zm2.75-2.69a1.26 1.26 0 1 0 0 2.52 1.37 1.37 0 0 0 1.33-1.26 1.28 1.28 0 0 0-1.31-1.26zm17-4a1.36 1.36 0 0 0-1.31 1.26 1.32 1.32 0 1 0 1.31-1.26zm-17-5.08a2.86 2.86 0 1 0 0 5.71 2.86 2.86 0 0 0 2.85-2.86 2.82 2.82 0 0 0-2.83-2.85zm19.77 2.4a1.26 1.26 0 1 0 1.31 1.25 1.32 1.32 0 0 0-1.29-1.25zm-5.43 0a1.26 1.26 0 1 0 1.31 1.25 1.29 1.29 0 0 0-1.29-1.25zm2.68-2.75A1.36 1.36 0 0 0 23.2 6a1.32 1.32 0 1 0 1.31-1.26z" fill="currentColor" fill-rule="evenodd"/></svg>