<svg xmlns="http://www.w3.org/2000/svg" data-name="Shopping cart" viewBox="0 0 32 32" width="20" data-testid="ShoppingCartIcon" color="currentColor"><path fill="currentColor" d="M23.12 28.073a2.248 2.248 0 1 0 2.25-2.326h-.005a2.288 2.288 0 0 0-2.245 2.326zm2.397-7.29a1.728 1.728 0 0 0 1.498-.982l4.844-11.686a1.544 1.544 0 0 0-.15-1.551 1.593 1.593 0 0 0-1.349-.673H8.44l-.55-2.895A1.494 1.494 0 0 0 6.393 1.6H1.598A1.606 1.606 0 0 0 0 3.255a1.548 1.548 0 0 0 1.598 1.654h3.496L7.49 18.973l-1.098 4.706a1.67 1.67 0 0 0 .25 1.395 1.529 1.529 0 0 0 1.198.673h18.675a1.656 1.656 0 0 0 0-3.31H9.937l.4-1.654zm-18.726 7.29a2.248 2.248 0 1 0 2.25-2.326h-.005a2.288 2.288 0 0 0-2.245 2.326z"/></svg>