<svg xmlns="http://www.w3.org/2000/svg" viewBox="0 0 61.22 42.34" width="42" role="presentation" alt="" data-testid="ForParentsIcon" size="42" color="currentColor"><path d="M46.32 32.31A7.13 7.13 0 0 1 41 29.94a1.05 1.05 0 0 1 .15-1.62 1.21 1.21 0 0 1 1.77.15 4.76 4.76 0 0 0 3.39 1.47 5.13 5.13 0 0 0 3.54-1.47 1.35 1.35 0 0 1 1.77-.15 1.17 1.17 0 0 1 .15 1.62 7.23 7.23 0 0 1-5.46 2.37M51.78 23A1.79 1.79 0 0 1 50 24.78 1.77 1.77 0 1 1 51.78 23m-7.23 0a1.79 1.79 0 0 1-1.77 1.77A1.77 1.77 0 1 1 44.55 23m12.68 2.8a10.77 10.77 0 0 0-21.53 0 10.68 10.68 0 0 0 10.77 10.49c6-.15 10.76-4.72 10.76-10.48M31 16.67a2.84 2.84 0 0 0-3-2.8 2.92 2.92 0 0 0-3 2.8 2.83 2.83 0 0 0 3 2.8 2.93 2.93 0 0 0 3-2.8m-12 0a2.84 2.84 0 0 0-3-2.8 2.93 2.93 0 0 0-2.95 2.8 2.84 2.84 0 0 0 2.95 2.8 2.93 2.93 0 0 0 3-2.8m3 15.19A12.62 12.62 0 0 0 31 28a2.06 2.06 0 0 0-.15-2.8h-.15a2.1 2.1 0 0 0-2.95.29A8 8 0 0 1 22 28a7.19 7.19 0 0 1-5.61-2.51 2.24 2.24 0 0 0-3-.29 1.93 1.93 0 0 0-.29 2.8v.15a12.12 12.12 0 0 0 8.9 3.71m24.47-20.35c8.11 0 14.75 6.34 14.75 14.16s-6.64 14.16-14.75 14.16a14.53 14.53 0 0 1-9.3-3.25 22.8 22.8 0 0 1-15 5.76C9.88 42.34 0 32.75 0 21.1S9.88 0 22.13 0A22.05 22.05 0 0 1 42 12.24a15.56 15.56 0 0 1 4.43-.73" fill="currentColor" fill-rule="evenodd"></path></svg>